<svg xmlns="http://www.w3.org/2000/svg" viewBox="0 0 512 512">
  <defs>
    <linearGradient id="bg" x1="0%" y1="0%" x2="100%" y2="100%">
      <stop offset="0%" style="stop-color:#7c3aed"/>
      <stop offset="100%" style="stop-color:#ec4899"/>
    </linearGradient>
  </defs>
  
  <!-- Background -->
  <rect width="512" height="512" rx="100" fill="url(#bg)"/>
  
  <!-- Cat face -->
  <ellipse cx="256" cy="280" rx="140" ry="120" fill="#fef3c7"/>
  
  <!-- Ears -->
  <polygon points="140,180 180,280 100,250" fill="#fef3c7"/>
  <polygon points="372,180 332,280 412,250" fill="#fef3c7"/>
  <polygon points="150,195 175,260 115,240" fill="#fcd34d"/>
  <polygon points="362,195 337,260 397,240" fill="#fcd34d"/>
  
  <!-- Eyes -->
  <ellipse cx="200" cy="260" rx="25" ry="30" fill="#1e293b"/>
  <ellipse cx="312" cy="260" rx="25" ry="30" fill="#1e293b"/>
  <ellipse cx="205" cy="252" rx="8" ry="10" fill="white"/>
  <ellipse cx="317" cy="252" rx="8" ry="10" fill="white"/>
  
  <!-- Nose -->
  <ellipse cx="256" cy="310" rx="15" ry="12" fill="#f472b6"/>
  
  <!-- Mouth -->
  <path d="M 240 325 Q 256 345 272 325" stroke="#1e293b" stroke-width="4" fill="none"/>
  
  <!-- Whiskers -->
  <line x1="120" y1="290" x2="180" y2="300" stroke="#94a3b8" stroke-width="3"/>
  <line x1="120" y1="310" x2="180" y2="310" stroke="#94a3b8" stroke-width="3"/>
  <line x1="120" y1="330" x2="180" y2="320" stroke="#94a3b8" stroke-width="3"/>
  <line x1="392" y1="290" x2="332" y2="300" stroke="#94a3b8" stroke-width="3"/>
  <line x1="392" y1="310" x2="332" y2="310" stroke="#94a3b8" stroke-width="3"/>
  <line x1="392" y1="330" x2="332" y2="320" stroke="#94a3b8" stroke-width="3"/>
  
  <!-- Sparkle -->
  <text x="380" y="150" font-size="60" fill="white">✨</text>
</svg>
